<svg width="1600" height="1000" viewBox="0 0 1600 1000" fill="none" xmlns="http://www.w3.org/2000/svg">
  <rect width="1600" height="1000" rx="72" fill="#D8E0CE"/>
  <rect x="48" y="48" width="1504" height="904" rx="56" fill="url(#paint0_linear)"/>
  <path d="M0 673C264 584 498 540 703 540C947 540 1246 605 1600 734V1000H0V673Z" fill="#466433"/>
  <path d="M44 611C290 541 510 506 705 506C934 506 1215 562 1556 681" stroke="#FCF9F6" stroke-width="28" stroke-linecap="round"/>
  <circle cx="1173" cy="272" r="144" fill="#FCF9F6" fill-opacity="0.66"/>
  <path d="M188 566H1413" stroke="#FCF9F6" stroke-width="10" stroke-opacity="0.5"/>
  <path d="M261 540V377H337V540" stroke="#735737" stroke-width="18" stroke-linecap="round"/>
  <path d="M337 377H425V540" stroke="#735737" stroke-width="18" stroke-linecap="round"/>
  <path d="M473 540V315L581 414V540" stroke="#735737" stroke-width="18" stroke-linecap="round" stroke-linejoin="round"/>
  <path d="M681 540V344H773V540" stroke="#735737" stroke-width="18" stroke-linecap="round"/>
  <path d="M903 540V286L1024 380V540" stroke="#735737" stroke-width="18" stroke-linecap="round" stroke-linejoin="round"/>
  <path d="M1128 540V348H1219V540" stroke="#735737" stroke-width="18" stroke-linecap="round"/>
  <defs>
    <linearGradient id="paint0_linear" x1="48" y1="48" x2="1552" y2="952" gradientUnits="userSpaceOnUse">
      <stop stop-color="#D6DFCB"/>
      <stop offset="1" stop-color="#F5D9CA"/>
    </linearGradient>
  </defs>
</svg>
